<svg width="32" height="32" viewBox="0 0 32 32" fill="none" xmlns="http://www.w3.org/2000/svg">
<path fill-rule="evenodd" clip-rule="evenodd" d="M16 32C24.8365 32 32 24.8365 32 16C32 7.16344 24.8365 0 16 0C7.16344 0 0 7.16344 0 16C0 24.8365 7.16344 32 16 32Z" fill="url(#paint0_linear_7688_39634)"/>
<path fill-rule="evenodd" clip-rule="evenodd" d="M6.39844 28.7998C9.07044 30.8078 12.3984 31.9998 15.9984 31.9998C19.5984 31.9998 22.9264 30.8078 25.5984 28.7998H6.39844Z" fill="#FF2D55"/>
<path fill-rule="evenodd" clip-rule="evenodd" d="M3.19922 25.6001C4.11122 26.8081 5.19122 27.8881 6.39922 28.8001H25.5992C26.8072 27.8881 27.8872 26.8081 28.7992 25.6001H3.19922Z" fill="#FFA25A"/>
<path fill-rule="evenodd" clip-rule="evenodd" d="M21.4639 22.3999H1.33594C1.83194 23.5439 2.46394 24.6159 3.19994 25.5999H21.4719V22.3999H21.4639Z" fill="#FFC95B"/>
<path fill-rule="evenodd" clip-rule="evenodd" d="M11.3359 10.3999V22.3999H21.3359L11.3359 10.3999Z" fill="url(#paint1_linear_7688_39634)"/>
<path fill-rule="evenodd" clip-rule="evenodd" d="M1.33594 22.3999H11.3359V10.3999L1.33594 22.3999Z" fill="#FCFCFC"/>
<path fill-rule="evenodd" clip-rule="evenodd" d="M21.4648 16.7998V25.5998H28.8008L21.4648 16.7998Z" fill="url(#paint2_linear_7688_39634)"/>
<path fill-rule="evenodd" clip-rule="evenodd" d="M14.1367 25.5998H21.4647V16.7998L14.1367 25.5998Z" fill="#FCFCFC"/>
<path fill-rule="evenodd" clip-rule="evenodd" d="M21.4648 14.3999C23.674 14.3999 25.4648 12.609 25.4648 10.3999C25.4648 8.19076 23.674 6.3999 21.4648 6.3999C19.2557 6.3999 17.4648 8.19076 17.4648 10.3999C17.4648 12.609 19.2557 14.3999 21.4648 14.3999Z" fill="#FFC95B"/>
<path fill-rule="evenodd" clip-rule="evenodd" d="M11.3359 8C12.4405 8 13.3359 7.10457 13.3359 6C13.3359 4.89543 12.4405 4 11.3359 4C10.2314 4 9.33594 4.89543 9.33594 6C9.33594 7.10457 10.2314 8 11.3359 8Z" fill="#FFC95B"/>
<defs>
<linearGradient id="paint0_linear_7688_39634" x1="16" y1="-6.62741" x2="-6.62741" y2="16" gradientUnits="userSpaceOnUse">
<stop stop-color="#FF2D55"/>
<stop offset="1" stop-color="#FFBC5B"/>
</linearGradient>
<linearGradient id="paint1_linear_7688_39634" x1="11.3326" y1="10.3999" x2="11.3326" y2="22.3999" gradientUnits="userSpaceOnUse">
<stop stop-color="#A524B3"/>
<stop offset="1" stop-color="#FF2D55"/>
</linearGradient>
<linearGradient id="paint2_linear_7688_39634" x1="21.4624" y1="16.7998" x2="21.4624" y2="25.5998" gradientUnits="userSpaceOnUse">
<stop stop-color="#A524B3"/>
<stop offset="1" stop-color="#FF2D55"/>
</linearGradient>
</defs>
</svg>
